<svg width="50" height="50" viewBox="0 0 50 50" fill="none" xmlns="http://www.w3.org/2000/svg">
<g clip-path="url(#clip0_25_4)">
<path d="M44 11.5H6C5.45 11.5 5 11.95 5 12.5V37.5C5 38.05 5.45 38.5 6 38.5H44C44.55 38.5 45 38.05 45 37.5V12.5C45 11.95 44.55 11.5 44 11.5ZM41.6 13.5L25 30.1L8.4 13.5H41.6ZM7 14.9L17.1 25L7 35.1V14.9ZM8.45 36.5L18.5 26.45L24.3 32.25C24.7 32.65 25.3 32.65 25.7 32.25L31.5 26.45L41.55 36.5H8.45ZM43 35.1L32.9 25L43 14.9V35.1Z" fill="white"/>
<path d="M402 -255V587H-490V-255H402ZM406 -259H-494V591H406V-259Z" fill="#BDDBFF"/>
</g>
<defs>
<clipPath id="clip0_25_4">
<rect width="50" height="50" fill="white"/>
</clipPath>
</defs>
</svg>
