<svg width="50" height="50" viewBox="0 0 50 50" fill="none" xmlns="http://www.w3.org/2000/svg">
<path d="M20.65 12.6C20.0531 5.73436 12.8906 2.36561 12.5875 2.22811C12.3041 2.09491 11.9866 2.05235 11.6781 2.10624C3.40937 3.47811 2.16562 8.29061 2.11562 8.49061C2.04759 8.76932 2.05841 9.06145 2.14687 9.33436C12.0094 39.9344 32.5062 45.6062 39.2437 47.4719C39.7625 47.6156 40.1906 47.7312 40.5156 47.8375C40.8865 47.9587 41.2894 47.9352 41.6437 47.7719C41.85 47.6781 46.7187 45.3844 47.9094 37.9031C47.9622 37.5765 47.9096 37.2416 47.7594 36.9469C47.6531 36.7406 45.1062 31.8937 38.0437 30.1812C37.8042 30.12 37.5533 30.1178 37.3127 30.175C37.072 30.2321 36.8489 30.3469 36.6625 30.5094C34.4344 32.4125 31.3562 34.4406 30.0281 34.65C21.125 30.2969 16.1531 21.9437 15.9656 20.3594C15.8562 19.4687 17.8969 16.3406 20.2437 13.7969C20.3912 13.6368 20.5036 13.4476 20.5736 13.2414C20.6435 13.0353 20.6696 12.8168 20.65 12.6Z" fill="white"/>
</svg>
